<svg viewBox="0 0 500 500" xmlns="http://www.w3.org/2000/svg"><path d="m187.25 460.689c-49.848-7.126-97.018-40.658-126.089-81.635-43.287-60.992-38.803-143.917 7.741-201.138 36.357-44.712 87.925-66.952 145.17-69.532 14.074-.631 27.708 1.523 40.904 6.463 22.706 8.502 44.258 19.32 64.654 32.45 22.596 14.548 39.994 38.397 52.502 60.317 22.068 38.642 23.604 78.378 15.888 121.186-12.226 67.886-63.389 129.604-136.177 133.167-20.384.995-44.418 1.609-64.593-1.278zm-57.663-80.934c18.947 17.361 41.678 28.813 66.596 30.09 26.843 1.377 51.736-4.718 74.68-18.283 44.688-26.417 70.699-70.023 64.163-123.251-5.407-44.122-27.572-77.936-62.615-103.8-23.222-17.153-48.079-22.657-76.167-18.246-26.105 4.112-49.197 15.474-69.274 34.084-32.61 30.243-47.816 67.079-45.622 110.509 1.757 34.772 23.26 66.018 48.239 88.897z" fill="#e4ecd7"/><path d="m229.215 355.357c-12.459.811-25.311-.221-36.591-5.713-24.168-11.759-40.621-34.023-41.948-60.931-1.192-24.021 7.741-48.042 26.061-63.721 37.34-31.958 80.332-5.246 102.093 28.85 14.019 21.982 14.511 49.591.295 71.437-10.973 16.882-29.416 28.727-49.91 30.078zm-45.106-84.436c-4.632 24.181 15.039 32.819 35.043 28.15 17.386-4.043 19.425-20.274 16.255-35.018-3.587-16.686-23.394-21.134-36.16-12.865-5.873 3.797-13.737 12.386-15.138 19.733z" fill="#e4ecd7"/><g fill-rule="evenodd" stroke="#000" stroke-linecap="round"><path d="m163.6 212.318v-70h66.24v70h-6.32v-64.4h-53.84v64.4zm212.88-8.72v-57.44h6.24v23.368 34.152c.002.605-.026 1.21-.085 1.813-.126 1.231-.39 2.24-.792 3.026-.014.027-.028.054-.043.081-.565 1.056-1.548 1.852-2.95 2.388-.122.047-.246.091-.37.132-.535.18-1.08.325-1.634.434-1.145.231-2.508.383-4.091.456-.265.012-.53.022-.795.03-1.925.055-4.133.091-6.626.108-1.192.008-2.382.012-3.574.012-.047-.256-.106-.51-.176-.761-.068-.246-.149-.505-.242-.776-.058-.169-.119-.336-.182-.503-.293-.773-.6-1.56-.92-2.36-.133-.333-.273-.662-.42-.989-.18-.397-.36-.761-.54-1.091 2.133.107 4.227.173 6.28.2s3.84.04 5.36.04h3.24c.717-.089 1.256-.245 1.615-.467.065-.04.127-.084.185-.133.133-.117.238-.262.307-.425.115-.258.184-.592.206-1.003.005-.097.007-.195.007-.292zm-44.64-35.68v-5.76h30.32v29.92h-30.32v-5.76h24.4v-18.4zm-217.28-24.32h6.08c0 2.347.107 5.12.32 8.32.136 1.987.347 3.969.634 5.94.21 1.452.452 2.899.726 4.34.491 2.555 1.126 5.079 1.903 7.562.401 1.29.833 2.569 1.297 3.838 1.44 3.947 3.387 7.88 5.84 11.8 1.742 2.764 3.705 5.381 5.871 7.827 1.082 1.229 2.206 2.42 3.369 3.573 3.707 3.68 8.2 7.067 13.48 10.16-.427.373-.973.867-1.64 1.48s-1.28 1.253-1.84 1.92-1.027 1.24-1.4 1.72c-3.04-1.842-5.946-3.896-8.696-6.148-1.758-1.444-3.435-2.983-5.024-4.612-2.534-2.59-4.86-5.376-6.957-8.331-.906-1.282-1.761-2.6-2.563-3.949-2.533-4.267-4.56-8.547-6.08-12.84-1.013-2.843-1.882-5.736-2.606-8.666-.31-1.264-.588-2.536-.834-3.814-.773-4.027-1.28-7.773-1.52-11.24s-.36-6.427-.36-8.88zm206.64 6.8v-6h71.36v6zm-208.96 8.88 6.8 1.2c-1.025 4.373-2.288 8.686-3.784 12.921-1.084 3.059-2.317 6.062-3.696 8.999-2.105 4.511-4.653 8.802-7.604 12.811-1.11 1.498-2.283 2.949-3.516 4.349-4.347 4.933-9.48 9.133-15.4 12.6-.305-.407-.769-.887-1.39-1.44-.03-.027-.06-.053-.09-.08-.667-.587-1.36-1.187-2.08-1.8-.495-.421-.946-.786-1.353-1.095-.173-.132-.349-.26-.527-.385 8.907-4.693 15.973-11.053 21.2-19.08 3.051-4.738 5.559-9.804 7.478-15.102 1.652-4.532 2.976-9.176 3.962-13.898zm177.44 52.96v-59.28h6v59.28zm-122.88-3.92v-5.6h59.6v5.6zm79.6-18.88v-5.04h21.92v23.36h-21.92v-4.96h16.56v-13.36zm-71.44 5.92v-5.12h43.92v5.12zm96.08-14.72v-5.76h42.72v5.76zm-94.96-20.56v-5.36h41.12v5.36zm17.36 32.96v-36.64h5.68v36.64zm-15.12-16.32v-5.2h36.96v5.2zm151.04 21.76v-36.32h5.84v36.32zm-48.48-59.92 6 1.2c-.907 3.84-2.013 7.587-3.32 11.24-.902 2.536-1.925 5.026-3.065 7.464-.426.908-.871 1.807-1.335 2.696-.875 1.685-1.829 3.328-2.859 4.923-.745 1.152-1.54 2.272-2.381 3.357-.141-.12-.285-.237-.432-.349-.153-.117-.32-.239-.501-.368-.194-.137-.389-.271-.587-.403-.64-.427-1.293-.827-1.96-1.2-.278-.155-.557-.308-.837-.459-.257-.138-.501-.266-.734-.385-.076-.039-.153-.078-.229-.116 1.366-1.603 2.601-3.313 3.695-5.112.53-.866 1.032-1.749 1.505-2.648 1.293-2.463 2.437-5 3.427-7.599.239-.624.47-1.251.693-1.881 1.2-3.387 2.173-6.84 2.92-10.36zm-.96 17.68v-5.52h32.16v5.52zm-40.16.8v-5.04h31.84v5.04zm3.68 54.4v-27.04h5.36v27.04zm.16-33.04v-4.8h24.96v4.8zm0-10.72v-4.72h24.96v4.72zm.4-21.36v-4.8h24.64v4.8zm-149.04 3.36v-6.08h22.64v6.08zm109.12 30.64 3.92-2.16c1.103.917 2.161 1.886 3.171 2.905.486.489.962.987 1.429 1.495.534.579 1.055 1.17 1.562 1.772.473.564.9 1.102 1.281 1.614.248.332.487.67.717 1.014l-4.16 2.48c-.315-.501-.648-.99-.997-1.468-.336-.462-.708-.947-1.115-1.456-.433-.54-.876-1.072-1.328-1.596-.893-1.039-1.826-2.044-2.796-3.011-.547-.545-1.109-1.074-1.684-1.589z" stroke-width=".25mm" transform="matrix(.96411779 .26547399 -.26547399 .96411779 29.562781 52.336165)"/><g stroke-width=".944882"><path d="m245.439 250.455h5.792v5.848h-5.792z"/><path d="m190.534 233.747h4.78v7.635h-4.78z"/><path d="m153.867 180.382h4.209v7.212h-4.209z"/><path d="m235.892 143.15h5.048v5.96h-5.048z" transform="matrix(.97830909 .20715198 -.20715198 .97830909 -80.036417 21.678149)"/><path d="m228.65 195.993c.956.105 6.627 1.722 7.709 2.759.601.576.541 1.224.424 1.839-.129.682-.755 1.697-1.344 2.051-.541.325-1.321.165-1.98.141-.661-.023-1.335-.036-1.98-.283-.701-.268-1.633-.88-2.051-1.343-.312-.345-.225-.793-.495-1.061-.285-.283-.912-.215-1.203-.566-.341-.413-.659-1.336-.566-1.91.091-.554.775-1.253 1.061-1.485.164-.132.126-.174.425-.142zm-.298 14.776c.54.005 1.805.492 2.192.92.298.329.073.873.283 1.202.212.332.775.387.99.778.26.47.411 1.248.283 1.98-.157.904-.94 2.554-1.485 3.042-.356.318-.589.337-1.132.283-.94-.095-3.644-.885-4.314-1.627-.466-.516-.373-1.159-.283-1.839.109-.821.716-2.242 1.132-2.758.267-.331.608-.255.849-.496.263-.263.37-.81.636-1.06.239-.225.475-.428.849-.425zm-4.735 18.344c.372-.061 1.135-.052 1.556.141.391.18.684.566.919.92.236.353.297.94.495 1.202.147.194.358.148.495.354.197.293.472.943.425 1.414-.05.496-.352 1.145-.778 1.486-.463.37-1.196.59-1.981.565-1-.031-2.972-.464-3.607-1.131-.514-.541-.575-1.567-.424-2.193.142-.588.878-1.251 1.202-1.485.192-.139.333-.024.495-.142.217-.157.414-.657.637-.848.181-.155.306-.241.566-.283zm44.878 25.152c.422-.088 1.271-.048 1.697.141.358.16.56.354.778.778.333.65.835 2.033.707 3.112-.141 1.198-1.031 3.148-1.768 3.749-.535.436-1.336.398-1.839.283-.437-.101-.833-.391-1.061-.778-.261-.445-.272-1.073-.282-1.839-.014-1.039.161-3.105.424-3.961.164-.536.389-.808.636-1.061.211-.214.392-.358.708-.424zm5.384-15.37c.46-.059 1.528.036 2.122.283.543.226 1.099.614 1.344 1.061.236.432.274 1.094.141 1.556-.131.456-.525.955-.919 1.202-.295.185-.645.3-1.036.308-.335.714-.898 1.57-1.354 1.868-.505.33-1.242.256-1.698.141-.385-.097-.699-.297-.919-.636-.272-.419-.551-1.215-.425-1.839.119-.589.719-1.437 1.199-1.93 0-.19.022-.372.06-.528.114-.468.636-.959.919-1.203.201-.172.284-.246.566-.283zm46.663 1.161c.744-.036 1.795.749 2.192 1.061.228.178.189.341.354.495.194.181.584.211.778.495.25.367.492.973.424 1.697-.099 1.055-.914 3.527-1.627 4.173-.486.441-.976.377-1.697.283-1.057-.138-3.52-.892-4.173-1.627-.46-.517-.407-1.127-.283-1.839.164-.937.897-2.522 1.627-3.324.652-.716 1.618-1.377 2.405-1.414zm4.209-20.375c1.21-.129 4.978.371 6.224.849.741.285 1.099.614 1.344 1.061.236.432.262 1.11.141 1.556-.113.417-.336.813-.778 1.061-.603.338-1.704.51-2.829.424-1.461-.111-4.462-.674-5.304-1.485-.58-.558-.486-1.613-.425-2.122.043-.356.191-.564.425-.778.274-.251.552-.496 1.202-.566zm-8.105-7.929c.511.028 1.782.381 2.193.92.404.53.362 1.489.282 2.263-.084.826-.344 1.72-.848 2.546-.23.376-.551.803-.909 1.214.005.1 0 .197-.015.29-.092.551-.648 1.32-1.061 1.627-.338.251-.722.346-1.132.283-.17-.027-.378-.088-.591-.176-.377.104-.738.139-1.031.086-.497-.089-.954-.512-1.202-.919-.253-.414-.386-1.075-.283-1.556.104-.487.552-.927.919-1.344.383-.434.92-.592 1.344-1.202.588-.847 1.138-3.204 1.627-3.749.249-.278.383-.3.707-.283zm93.081 24.452c1.434.099 7.212 1.978 8.275 3.041.554.552.368 1.218.283 1.697-.074.42-.275.815-.636 1.061-.44.3-1.249.443-1.98.424-.847-.021-2.001-.661-2.83-.707-.692-.038-1.163.396-1.838.283-.826-.138-2.21-.659-2.759-1.344-.514-.641-.673-1.842-.566-2.546.092-.6.543-1.168.92-1.485.325-.274.484-.469 1.131-.424zm-47.44 3.962c.628-.06 2.632.23 3.395.566.534.234.838.561 1.061.919.207.333.346.722.283 1.132-.049.321-.218.775-.462 1.141.082.398.102.832.034 1.129-.1.438-.288.822-.778 1.061-.762.372-3.103.435-3.961.283-.531-.094-.814-.21-1.061-.566-.316-.456-.561-1.628-.424-2.192.062-.255.238-.48.435-.668-.202-.467-.133-1.062-.007-1.461.138-.436.64-.837.92-1.061.203-.163.247-.253.565-.283zm-5.98 20.513c.564.016 1.888.417 2.334 1.061.483.697.431 1.942.283 3.112-.181 1.428-.835 4.137-1.627 4.88-.543.509-1.455.428-1.98.283-.456-.126-.838-.561-1.061-.92-.207-.332-.278-.555-.283-1.131-.01-1.044.781-4.458.849-5.092.021-.199-.036-.138 0-.283.07-.291.348-1.168.636-1.486.233-.257.47-.435.849-.424z"/></g></g></svg>