<svg height="500" viewBox="0 0 132.29 132.29" width="500" xmlns="http://www.w3.org/2000/svg"><g fill="#e4ecd7" transform="matrix(.35579 0 0 .35579 -24.939 -27.84)"><path d="m237.49 403.31c-40.57-5.8-78.96-33.09-102.62-66.44-35.23-49.64-31.58-117.13 6.3-163.7 29.59-36.39 71.56-54.49 118.15-56.59q17.18-.77 33.29 5.26 27.72 10.38 52.62 26.41c18.39 11.84 32.55 31.25 42.73 49.09 17.96 31.45 19.21 63.79 12.93 98.63-9.95 55.25-51.59 105.48-110.83 108.38-16.59.81-36.15 1.31-52.57-1.04zm-46.93-65.87c15.42 14.13 33.92 23.45 54.2 24.49q32.77 1.68 60.78-14.88c36.37-21.5 57.54-56.99 52.22-100.31-4.4-35.91-22.44-63.43-50.96-84.48-18.9-13.96-39.13-18.44-61.99-14.85q-31.87 5.02-56.38 27.74-39.81 36.92-37.13 89.94c1.43 28.3 18.93 53.73 39.26 72.35z"/><path d="m271.7 317.82c-10.14.66-20.6-.18-29.78-4.65-19.67-9.57-33.06-27.69-34.14-49.59-.97-19.55 6.3-39.1 21.21-51.86 30.39-26.01 65.38-4.27 83.09 23.48 11.41 17.89 11.81 40.36.24 58.14-8.93 13.74-23.94 23.38-40.62 24.48zm-36.71-68.72c-3.77 19.68 12.24 26.71 28.52 22.91 14.15-3.29 15.81-16.5 13.23-28.5-2.92-13.58-19.04-17.2-29.43-10.47-4.78 3.09-11.18 10.08-12.32 16.06z"/></g><g fill="#338000"><path d="m82.432 40.001 3.4648-8.6012 8.1912 3.2997-3.4648 8.6012-.50007-.20144 3.2835-8.1512-7.201-2.9008-3.2835 8.1512zm23.286 2.7077.18533-.46007 3.8105 1.535-1.4665 3.6405-3.8105-1.535.18936-.47007 3.3205 1.3376 1.0918-2.7104zm3.8126 7.2434 2.9693-7.3711.50006.20144-2.9693 7.3711q-.13297.33005-.29743.44978-.13469.09802-.35216.09248a1.0658 1.0658 0 0 1 -.10056-.0075q-.27824-.03076-.78533-.22917-.34861-.13648-.79792-.3162a193.61 193.61 0 0 1 -.42926-.17235 1.8654 1.8654 0 0 0 .006-.06288q.005-.05604.006-.12425a8.0985 8.0985 0 0 0 .004-.19634 8.8801 8.8801 0 0 0 -.00072-.02895 1.9344 1.9344 0 0 0 -.001-.08289q-.003-.06552-.01-.11934.42603.18324.80906.34336a33.347 33.347 0 0 0 .18517.07678q.17894.07349.33255.13396a16.33 16.33 0 0 0 .14738.05716q.25979.0993.38207.1481a7.2427 7.2427 0 0 1 .0201.0082.75585.75585 0 0 0 .0767.02103q.0788.01687.13313.006a.16972.16972 0 0 0 .0263-.0074q.0822-.03084.14663-.19086zm-29.761-20.858.49006.19741a13.937 13.937 0 0 0 -.13408.34703q-.05757.15477-.11813.32662a25.937 25.937 0 0 0 -.12376.36061q-.20269.60419-.35269 1.3517a9.0704 9.0704 0 0 0 -.14723 1.0791 10.822 10.822 0 0 0 -.02795.5243 8.439 8.439 0 0 0 .05575 1.2187 10.043 10.043 0 0 0 .08501.58164q.1659.94447.59995 1.9447.43405 1.0002 1.2184 2.0252a.84006.84006 0 0 0 -.06089.01523q-.05393.01559-.11844.0404-.10323.0398-.20846.08459a1.4196 1.4196 0 0 0 -.07177.03281q-.03209.0158-.05891.03148a.64533.64533 0 0 0 -.03856.02443q-.77632-1.0451-1.2053-2.0723a9.7267 9.7267 0 0 1 -.4581-1.3615 8.3028 8.3028 0 0 1 -.13766-.65121 9.585 9.585 0 0 1 -.13542-1.3776 8.3679 8.3679 0 0 1 .0039-.51782 11.399 11.399 0 0 1 .09246-1.0885 9.3959 9.3959 0 0 1 .10195-.60595q.15906-.78451.36383-1.4227a21.774 21.774 0 0 1 .15031-.4522q.12246-.35484.23576-.63609zm25.53 10.958.19338-.48007 8.8413 3.5615-.19339.48007zm-26.467-9.2088.49978.31757a17.286 17.286 0 0 1 -1.139 1.4392 13.644 13.644 0 0 1 -.92012.94546 9.7947 9.7947 0 0 1 -1.6419 1.242 8.7089 8.7089 0 0 1 -.62947.34229 8.5046 8.5046 0 0 1 -2.399.75438 9.6205 9.6205 0 0 1 -.2199.03312.27862.27862 0 0 0 -.01004-.04065q-.01664-.0524-.05666-.1257-.05683-.10426-.10659-.2115-.04985-.10725-.11369-.17948a7.9764 7.9764 0 0 0 3.0965-.97394 7.7265 7.7265 0 0 0 .62901-.39653 10.704 10.704 0 0 0 1.734-1.5328 14.515 14.515 0 0 0 1.2771-1.6134zm4.0612 8.7617.18533-.46007 7.6611 3.0861-.18532.46007zm10.973 1.5024.17728-.44006 2.8004 1.1281-1.1482 2.8504-2.8004-1.1281.17324-.43006 2.3503.94679.79773-1.9803zm4.4021 5.2606 2.9653-7.3611.48007.19339-2.9653 7.3611zm-13.684-7.9302.17727-.44006 5.6608 2.2803-.17727.44006zm12.858 2.8545.18936-.47007 5.3208 2.1434-.18936.47007zm-10.846-7.3567.1813-.45006 5.2508 2.1152-.1813.45007zm-.57617 2.2671.1813-.45006 4.7007 1.8936-.18129.45006zm1.1419 3.0522 1.8895-4.6907.46007.18533-1.8895 4.6907zm16.755 7.3771 1.7969-4.4606.47008.18936-1.7969 4.4606zm-4.1795-7.891.1813-.45007 4.0206 1.6196-.18129.45006zm1.0839-1.9115.44382.2834q-.45609.64161-.97605 1.211a12.377 12.377 0 0 1 -.75349.75894 10.696 10.696 0 0 1 -.29818.26465 7.4486 7.4486 0 0 1 -.62988.48465 6.0118 6.0118 0 0 1 -.42915.26862q-.036-.04764-.08738-.12249a6.1238 6.1238 0 0 1 -.0054-.0078 3.5002 3.5002 0 0 0 -.08786-.12259 4.0025 4.0025 0 0 0 -.03181-.04188q-.06488-.08425-.12279-.14246a5.5448 5.5448 0 0 0 .78469-.49645 6.509 6.509 0 0 0 .27726-.22077 9.8054 9.8054 0 0 0 .8749-.83639 10.96 10.96 0 0 0 .1296-.14227q.48587-.54243.9118-1.1381zm-6.0468.0053.17324-.43006 3.9006 1.5713-.17325.43006zm-2.3199 7.0863 1.3497-3.3505.46006.18533-1.3497 3.3505zm1.7223-4.2466.16921-.42006 3.0604 1.2328-.16921.42006zm.53584-1.3302.16519-.41006 3.0604 1.2328-.16518.41006zm1.1056-2.6002.16921-.42006 3.0104 1.2127-.16922.42006zm-18.816-7.1959.19741-.49007 2.8304 1.1402-.19743.49007zm12.118 9.5082.40062-.07111q.2153.38896.40038.85294a9.0213 9.0213 0 0 1 .1048.27482q.05157.14271.08997.26722a3.6393 3.6393 0 0 1 .06364.23046l-.44271.08902a2.8876 2.8876 0 0 0 -.05538-.23446q-.06683-.24128-.18698-.54901a12.41 12.41 0 0 0 -.22022-.52939 9.9656 9.9656 0 0 0 -.15411-.33049z" fill-rule="evenodd" stroke="#000" stroke-linecap="round" stroke-width=".026956mm"/><g stroke-width=".18224"><path d="m120.25-1.1428h.69024v.5044h-.69024z" transform="matrix(.93229855 .36168966 -.36168966 .93229855 0 0)"/><path d="m113.92 2.0129h.39216v.53294h-.39216z" transform="matrix(.93519085 .35414414 -.35414414 .93519085 0 0)"/><path d="m113.69 7.5202h.41227v.59327h-.41227z" transform="matrix(.94174675 .33632285 -.33632285 .94174675 0 0)"/></g><path d="m108.44-.3127h.57079v.34512h-.57079z" stroke-width=".19131" transform="matrix(.93215 .36207 -.41261 .91091 0 0)"/><g stroke-width=".18224"><path d="m108.45 2.3873h.52288v.54299h-.52288z" transform="matrix(.93106218 .36486053 -.36486053 .93106218 0 0)"/><path d="m102.85 28.891h.45249v.61338h-.45249z" transform="matrix(.99581562 .09138517 -.09138517 .99581562 0 0)"/><path d="m102.44-.22309h.32177v.48266h-.32177z" transform="matrix(.9169835 .39892512 -.39892512 .9169835 0 0)"/><path d="m102.45 3.9538h.28155v.55305h-.28155z" transform="matrix(.92318339 .38435977 -.38435977 .92318339 0 0)"/><path d="m99.636 6.1851h.30166v.53294h-.30166z" transform="matrix(.9310176 .36497428 -.36497428 .9310176 0 0)"/></g><path d="m95.522 2.1524h.53781v.47401h-.53781z" stroke-width=".20355" transform="matrix(.94058 .33958 -.36014 .9329 0 0)"/><path d="m95.57 2.8328h.5058v.59939h-.5058z" stroke-width=".18253" transform="matrix(.93496 .35476 -.38434 .92319 0 0)"/><path d="m95.293 7.1238h.52288v.34188h-.52288z" stroke-width=".18224" transform="matrix(.94093397 .33859012 -.33859012 .94093397 0 0)"/><path d="m91.636 3.9786h.41227v.51283h-.41227z" stroke-width=".18224" transform="matrix(.92226845 .38655 -.38655 .92226845 0 0)"/><path d="m84.76-2.952h.35113v.56156h-.35113z" stroke-width=".20045" transform="matrix(.92702 .37501 -.4063 .91374 0 0)"/><path d="m81.578 23.682h.362v.64355h-.362z" stroke-width=".25773" transform="matrix(.99581562 .09138517 -.09138517 .99581562 0 0)"/></g></svg>